# xmcd
#
# Track frame offsets: 
#        150
#        37483
#        55097
#        89049
#        119361
#        135276
#        180485
#        199389
#        234500
#        244399
#        273102
#        289011
#
# Disc length: 4056 seconds
#
# Revision: 0
# Processed by: cddbd v1.5.2PL0 Copyright (c) Steve Scherf et al.
# Submitted via: ExactAudioCopy v1.0b1
#
DISCID=b30fd60c
DTITLE=Various Artist - Four Important Musical Instruments CD3 Pipa
DYEAR=2005
DGENRE=Classical
TTITLE0=The Ambush on All Sides
TTITLE1=White Snow in Sunny String
TTITLE2=Zhao Jun Going Out to the Frontier
TTITLE3=Lament of Chang Men
TTITLE4=High Mountain and Flowing Water
TTITLE5=King Xiang Yu Discarding His Amour
TTITLE6=Plum Blossom Melody
TTITLE7=At the Northern Frontier Fortress
TTITLE8=Dance of the Golden Snake
TTITLE9=Little Gauze Dress
TTITLE10=The "San-Liu"Tune
TTITLE11=A Green Area Sprinkled With Flowers
EXTD=
EXTT0=
EXTT1=
EXTT2=
EXTT3=
EXTT4=
EXTT5=
EXTT6=
EXTT7=
EXTT8=
EXTT9=
EXTT10=
EXTT11=
PLAYORDER=
